<svg viewBox="0 0 800 280" xmlns="http://www.w3.org/2000/svg" style="width:100%;height:auto;display:block">
  <defs>
    <linearGradient id="eqfill" x1="0" x2="0" y1="0" y2="1">
      <stop offset="0%" stop-color="#9A8868" stop-opacity="0.30"/>
      <stop offset="100%" stop-color="#C8B89A" stop-opacity="0.04"/>
    </linearGradient>
  </defs>

  <line x1="50" x2="788" y1="252.00" y2="252.00" stroke="rgba(28,27,23,0.10)" stroke-width="1" stroke-dasharray="2 4"/><line x1="50" x2="788" y1="193.00" y2="193.00" stroke="rgba(28,27,23,0.10)" stroke-width="1" stroke-dasharray="2 4"/><line x1="50" x2="788" y1="134.00" y2="134.00" stroke="rgba(28,27,23,0.10)" stroke-width="1" stroke-dasharray="2 4"/><line x1="50" x2="788" y1="75.00" y2="75.00" stroke="rgba(28,27,23,0.10)" stroke-width="1" stroke-dasharray="2 4"/><line x1="50" x2="788" y1="16.00" y2="16.00" stroke="rgba(28,27,23,0.10)" stroke-width="1" stroke-dasharray="2 4"/>

  <path d="M 50.00 239.36 L 52.67 233.63 L 55.35 235.20 L 58.02 234.98 L 60.70 236.57 L 63.37 237.49 L 66.04 236.61 L 68.72 235.36 L 71.39 235.28 L 74.07 233.30 L 76.74 233.97 L 79.41 231.08 L 82.09 229.17 L 84.76 231.00 L 87.43 232.10 L 90.11 231.10 L 92.78 228.43 L 95.46 228.77 L 98.13 227.17 L 100.80 227.09 L 103.48 225.61 L 106.15 225.15 L 108.83 216.26 L 111.50 212.07 L 114.17 209.75 L 116.85 211.74 L 119.52 206.07 L 122.20 205.51 L 124.87 202.98 L 127.54 196.87 L 130.22 196.80 L 132.89 203.71 L 135.57 200.38 L 138.24 203.48 L 140.91 203.10 L 143.59 205.48 L 146.26 200.98 L 148.93 196.72 L 151.61 197.04 L 154.28 197.15 L 156.96 197.04 L 159.63 196.46 L 162.30 196.36 L 164.98 196.19 L 167.65 195.20 L 170.33 191.04 L 173.00 190.95 L 175.67 191.44 L 178.35 189.92 L 181.02 189.90 L 183.70 187.79 L 186.37 188.41 L 189.04 188.01 L 191.72 188.06 L 194.39 188.88 L 197.07 188.95 L 199.74 186.24 L 202.41 180.95 L 205.09 180.79 L 207.76 179.80 L 210.43 177.63 L 213.11 177.62 L 215.78 177.19 L 218.46 177.39 L 221.13 177.31 L 223.80 176.90 L 226.48 176.85 L 229.15 174.17 L 231.83 171.86 L 234.50 171.90 L 237.17 174.43 L 239.85 173.97 L 242.52 172.75 L 245.20 171.51 L 247.87 173.09 L 250.54 173.27 L 253.22 173.18 L 255.89 173.26 L 258.57 171.41 L 261.24 171.19 L 263.91 171.16 L 266.59 171.21 L 269.26 170.39 L 271.93 165.41 L 274.61 164.90 L 277.28 164.75 L 279.96 162.30 L 282.63 162.83 L 285.30 163.06 L 287.98 164.78 L 290.65 164.27 L 293.33 160.56 L 296.00 161.09 L 298.67 160.16 L 301.35 161.82 L 304.02 161.96 L 306.70 161.16 L 309.37 160.78 L 312.04 160.95 L 314.72 160.26 L 317.39 161.68 L 320.07 159.85 L 322.74 158.35 L 325.41 163.48 L 328.09 166.08 L 330.76 164.66 L 333.43 162.72 L 336.11 167.87 L 338.78 165.98 L 341.46 165.61 L 344.13 168.84 L 346.80 171.54 L 349.48 172.32 L 352.15 173.38 L 354.83 174.17 L 357.50 173.11 L 360.17 176.73 L 362.85 169.93 L 365.52 167.29 L 368.20 162.07 L 370.87 159.60 L 373.54 162.37 L 376.22 157.46 L 378.89 162.28 L 381.57 149.90 L 384.24 149.75 L 386.91 147.60 L 389.59 151.35 L 392.26 142.31 L 394.93 140.97 L 397.61 143.22 L 400.28 139.47 L 402.96 142.43 L 405.63 150.97 L 408.30 149.79 L 410.98 148.39 L 413.65 149.43 L 416.33 149.03 L 419.00 150.71 L 421.67 152.25 L 424.35 153.79 L 427.02 146.05 L 429.70 134.56 L 432.37 130.75 L 435.04 125.26 L 437.72 119.77 L 440.39 118.35 L 443.07 109.31 L 445.74 113.58 L 448.41 118.84 L 451.09 118.63 L 453.76 121.07 L 456.43 122.33 L 459.11 119.11 L 461.78 113.99 L 464.46 112.83 L 467.13 114.33 L 469.80 120.90 L 472.48 120.01 L 475.15 119.86 L 477.83 121.91 L 480.50 122.69 L 483.17 122.61 L 485.85 122.49 L 488.52 127.71 L 491.20 127.63 L 493.87 126.37 L 496.54 126.66 L 499.22 125.36 L 501.89 126.53 L 504.57 120.92 L 507.24 123.54 L 509.91 120.16 L 512.59 120.34 L 515.26 120.29 L 517.93 120.22 L 520.61 119.62 L 523.28 117.14 L 525.96 112.66 L 528.63 101.98 L 531.30 102.54 L 533.98 106.45 L 536.65 103.23 L 539.33 101.93 L 542.00 101.66 L 544.67 101.61 L 547.35 101.53 L 550.02 86.81 L 552.70 87.50 L 555.37 101.89 L 558.04 91.93 L 560.72 91.98 L 563.39 86.71 L 566.07 86.09 L 568.74 84.83 L 571.41 79.55 L 574.09 79.82 L 576.76 81.12 L 579.43 79.61 L 582.11 78.79 L 584.78 71.45 L 587.46 70.41 L 590.13 73.77 L 592.80 73.01 L 595.48 73.27 L 598.15 71.17 L 600.83 63.98 L 603.50 66.50 L 606.17 63.92 L 608.85 68.58 L 611.52 68.77 L 614.20 68.76 L 616.87 69.42 L 619.54 70.45 L 622.22 75.63 L 624.89 74.97 L 627.57 75.34 L 630.24 71.85 L 632.91 73.39 L 635.59 68.55 L 638.26 68.45 L 640.93 70.59 L 643.61 72.75 L 646.28 61.00 L 648.96 61.06 L 651.63 60.96 L 654.30 73.41 L 656.98 75.33 L 659.65 66.68 L 662.33 61.72 L 665.00 62.88 L 667.67 62.78 L 670.35 57.72 L 673.02 57.61 L 675.70 53.97 L 678.37 53.91 L 681.04 55.34 L 683.72 55.99 L 686.39 51.98 L 689.07 56.65 L 691.74 57.14 L 694.41 57.04 L 697.09 57.57 L 699.76 57.49 L 702.43 45.49 L 705.11 34.89 L 707.78 33.03 L 710.46 32.77 L 713.13 28.64 L 715.80 37.65 L 718.48 32.44 L 721.15 33.06 L 723.83 33.69 L 726.50 37.42 L 729.17 38.65 L 731.85 43.32 L 734.52 43.26 L 737.20 49.21 L 739.87 49.36 L 742.54 43.26 L 745.22 44.29 L 747.89 48.45 L 750.57 49.06 L 753.24 38.05 L 755.91 43.20 L 758.59 41.15 L 761.26 46.42 L 763.93 49.78 L 766.61 50.58 L 769.28 51.09 L 771.96 53.01 L 774.63 55.78 L 777.30 52.92 L 779.98 55.48 L 782.65 55.74 L 785.33 56.76 L 788.00 56.50 L 788.00 252.00 L 50.00 252.00 Z" fill="url(#eqfill)"/>
  <path d="M 50.00 239.36 L 52.67 233.63 L 55.35 235.20 L 58.02 234.98 L 60.70 236.57 L 63.37 237.49 L 66.04 236.61 L 68.72 235.36 L 71.39 235.28 L 74.07 233.30 L 76.74 233.97 L 79.41 231.08 L 82.09 229.17 L 84.76 231.00 L 87.43 232.10 L 90.11 231.10 L 92.78 228.43 L 95.46 228.77 L 98.13 227.17 L 100.80 227.09 L 103.48 225.61 L 106.15 225.15 L 108.83 216.26 L 111.50 212.07 L 114.17 209.75 L 116.85 211.74 L 119.52 206.07 L 122.20 205.51 L 124.87 202.98 L 127.54 196.87 L 130.22 196.80 L 132.89 203.71 L 135.57 200.38 L 138.24 203.48 L 140.91 203.10 L 143.59 205.48 L 146.26 200.98 L 148.93 196.72 L 151.61 197.04 L 154.28 197.15 L 156.96 197.04 L 159.63 196.46 L 162.30 196.36 L 164.98 196.19 L 167.65 195.20 L 170.33 191.04 L 173.00 190.95 L 175.67 191.44 L 178.35 189.92 L 181.02 189.90 L 183.70 187.79 L 186.37 188.41 L 189.04 188.01 L 191.72 188.06 L 194.39 188.88 L 197.07 188.95 L 199.74 186.24 L 202.41 180.95 L 205.09 180.79 L 207.76 179.80 L 210.43 177.63 L 213.11 177.62 L 215.78 177.19 L 218.46 177.39 L 221.13 177.31 L 223.80 176.90 L 226.48 176.85 L 229.15 174.17 L 231.83 171.86 L 234.50 171.90 L 237.17 174.43 L 239.85 173.97 L 242.52 172.75 L 245.20 171.51 L 247.87 173.09 L 250.54 173.27 L 253.22 173.18 L 255.89 173.26 L 258.57 171.41 L 261.24 171.19 L 263.91 171.16 L 266.59 171.21 L 269.26 170.39 L 271.93 165.41 L 274.61 164.90 L 277.28 164.75 L 279.96 162.30 L 282.63 162.83 L 285.30 163.06 L 287.98 164.78 L 290.65 164.27 L 293.33 160.56 L 296.00 161.09 L 298.67 160.16 L 301.35 161.82 L 304.02 161.96 L 306.70 161.16 L 309.37 160.78 L 312.04 160.95 L 314.72 160.26 L 317.39 161.68 L 320.07 159.85 L 322.74 158.35 L 325.41 163.48 L 328.09 166.08 L 330.76 164.66 L 333.43 162.72 L 336.11 167.87 L 338.78 165.98 L 341.46 165.61 L 344.13 168.84 L 346.80 171.54 L 349.48 172.32 L 352.15 173.38 L 354.83 174.17 L 357.50 173.11 L 360.17 176.73 L 362.85 169.93 L 365.52 167.29 L 368.20 162.07 L 370.87 159.60 L 373.54 162.37 L 376.22 157.46 L 378.89 162.28 L 381.57 149.90 L 384.24 149.75 L 386.91 147.60 L 389.59 151.35 L 392.26 142.31 L 394.93 140.97 L 397.61 143.22 L 400.28 139.47 L 402.96 142.43 L 405.63 150.97 L 408.30 149.79 L 410.98 148.39 L 413.65 149.43 L 416.33 149.03 L 419.00 150.71 L 421.67 152.25 L 424.35 153.79 L 427.02 146.05 L 429.70 134.56 L 432.37 130.75 L 435.04 125.26 L 437.72 119.77 L 440.39 118.35 L 443.07 109.31 L 445.74 113.58 L 448.41 118.84 L 451.09 118.63 L 453.76 121.07 L 456.43 122.33 L 459.11 119.11 L 461.78 113.99 L 464.46 112.83 L 467.13 114.33 L 469.80 120.90 L 472.48 120.01 L 475.15 119.86 L 477.83 121.91 L 480.50 122.69 L 483.17 122.61 L 485.85 122.49 L 488.52 127.71 L 491.20 127.63 L 493.87 126.37 L 496.54 126.66 L 499.22 125.36 L 501.89 126.53 L 504.57 120.92 L 507.24 123.54 L 509.91 120.16 L 512.59 120.34 L 515.26 120.29 L 517.93 120.22 L 520.61 119.62 L 523.28 117.14 L 525.96 112.66 L 528.63 101.98 L 531.30 102.54 L 533.98 106.45 L 536.65 103.23 L 539.33 101.93 L 542.00 101.66 L 544.67 101.61 L 547.35 101.53 L 550.02 86.81 L 552.70 87.50 L 555.37 101.89 L 558.04 91.93 L 560.72 91.98 L 563.39 86.71 L 566.07 86.09 L 568.74 84.83 L 571.41 79.55 L 574.09 79.82 L 576.76 81.12 L 579.43 79.61 L 582.11 78.79 L 584.78 71.45 L 587.46 70.41 L 590.13 73.77 L 592.80 73.01 L 595.48 73.27 L 598.15 71.17 L 600.83 63.98 L 603.50 66.50 L 606.17 63.92 L 608.85 68.58 L 611.52 68.77 L 614.20 68.76 L 616.87 69.42 L 619.54 70.45 L 622.22 75.63 L 624.89 74.97 L 627.57 75.34 L 630.24 71.85 L 632.91 73.39 L 635.59 68.55 L 638.26 68.45 L 640.93 70.59 L 643.61 72.75 L 646.28 61.00 L 648.96 61.06 L 651.63 60.96 L 654.30 73.41 L 656.98 75.33 L 659.65 66.68 L 662.33 61.72 L 665.00 62.88 L 667.67 62.78 L 670.35 57.72 L 673.02 57.61 L 675.70 53.97 L 678.37 53.91 L 681.04 55.34 L 683.72 55.99 L 686.39 51.98 L 689.07 56.65 L 691.74 57.14 L 694.41 57.04 L 697.09 57.57 L 699.76 57.49 L 702.43 45.49 L 705.11 34.89 L 707.78 33.03 L 710.46 32.77 L 713.13 28.64 L 715.80 37.65 L 718.48 32.44 L 721.15 33.06 L 723.83 33.69 L 726.50 37.42 L 729.17 38.65 L 731.85 43.32 L 734.52 43.26 L 737.20 49.21 L 739.87 49.36 L 742.54 43.26 L 745.22 44.29 L 747.89 48.45 L 750.57 49.06 L 753.24 38.05 L 755.91 43.20 L 758.59 41.15 L 761.26 46.42 L 763.93 49.78 L 766.61 50.58 L 769.28 51.09 L 771.96 53.01 L 774.63 55.78 L 777.30 52.92 L 779.98 55.48 L 782.65 55.74 L 785.33 56.76 L 788.00 56.50" stroke="#9A8868" stroke-width="1.5" fill="none" stroke-linejoin="round"/>

  <circle cx="788.00" cy="56.50" r="3.5" fill="#9A8868"/>
  <line x1="788.00" y1="16" x2="788.00" y2="252" stroke="rgba(154,136,104,0.35)" stroke-width="1" stroke-dasharray="2 3"/>

  <text x="44" y="2550" text-anchor="end" font-size="10" fill="rgba(28,27,23,0.55)" font-family="JetBrains Mono">$509</text><text x="44" y="1960" text-anchor="end" font-size="10" fill="rgba(28,27,23,0.55)" font-family="JetBrains Mono">$2,839</text><text x="44" y="1370" text-anchor="end" font-size="10" fill="rgba(28,27,23,0.55)" font-family="JetBrains Mono">$5,170</text><text x="44" y="780" text-anchor="end" font-size="10" fill="rgba(28,27,23,0.55)" font-family="JetBrains Mono">$7,500</text><text x="44" y="190" text-anchor="end" font-size="10" fill="rgba(28,27,23,0.55)" font-family="JetBrains Mono">$9,831</text>
  <text x="50.00" y="272" text-anchor="middle" font-size="10" fill="rgba(28,27,23,0.55)" font-family="JetBrains Mono">Feb 25</text><text x="234.50" y="272" text-anchor="middle" font-size="10" fill="rgba(28,27,23,0.55)" font-family="JetBrains Mono">Mar 12</text><text x="419.00" y="272" text-anchor="middle" font-size="10" fill="rgba(28,27,23,0.55)" font-family="JetBrains Mono">Mar 28</text><text x="603.50" y="272" text-anchor="middle" font-size="10" fill="rgba(28,27,23,0.55)" font-family="JetBrains Mono">Apr 10</text><text x="788.00" y="272" text-anchor="middle" font-size="10" fill="rgba(28,27,23,0.55)" font-family="JetBrains Mono">Apr 21</text>

  <text x="50" y="12" font-size="10" fill="rgba(28,27,23,0.55)" font-family="JetBrains Mono" letter-spacing="1.5">STRATEGY 01 ·  EQUITY CURVE  · BACKTEST $1,000 → $8,231</text>
</svg>