<svg viewBox="0 0 760 240" xmlns="http://www.w3.org/2000/svg" style="width:100%;height:auto;display:block">
  
<g transform="translate(44, 4)">
  <rect x="0" y="0" width="11" height="3" fill="#1C1B17"/>
  <text x="16" y="4" font-size="10" fill="rgba(28,27,23,0.78)" font-family="JetBrains Mono" letter-spacing="0.5">our model</text>
  <rect x="100" y="0" width="11" height="3" fill="#C97D6E"/>
  <text x="116" y="4" font-size="10" fill="rgba(28,27,23,0.78)" font-family="JetBrains Mono" letter-spacing="0.5">persistence</text>
  <rect x="220" y="0" width="11" height="3" fill="#9A8868"/>
  <text x="236" y="4" font-size="10" fill="rgba(28,27,23,0.78)" font-family="JetBrains Mono" letter-spacing="0.5">climatology</text>
</g>
  <line x1="44" x2="746" y1="210.00" y2="210.00" stroke="rgba(28,27,23,0.10)" stroke-width="1"/><text x="38" y="213.00" text-anchor="end" font-size="10" fill="rgba(28,27,23,0.55)" font-family="JetBrains Mono">0.0°</text><line x1="44" x2="746" y1="161.00" y2="161.00" stroke="rgba(28,27,23,0.10)" stroke-width="1"/><text x="38" y="164.00" text-anchor="end" font-size="10" fill="rgba(28,27,23,0.55)" font-family="JetBrains Mono">2.0°</text><line x1="44" x2="746" y1="112.00" y2="112.00" stroke="rgba(28,27,23,0.10)" stroke-width="1"/><text x="38" y="115.00" text-anchor="end" font-size="10" fill="rgba(28,27,23,0.55)" font-family="JetBrains Mono">4.0°</text><line x1="44" x2="746" y1="63.00" y2="63.00" stroke="rgba(28,27,23,0.10)" stroke-width="1"/><text x="38" y="66.00" text-anchor="end" font-size="10" fill="rgba(28,27,23,0.55)" font-family="JetBrains Mono">5.9°</text><line x1="44" x2="746" y1="14.00" y2="14.00" stroke="rgba(28,27,23,0.10)" stroke-width="1"/><text x="38" y="17.00" text-anchor="end" font-size="10" fill="rgba(28,27,23,0.55)" font-family="JetBrains Mono">7.9°</text>
  <rect x="57.04" y="125.07" width="22.06" height="84.93" fill="#9A8868" rx="1"/><rect x="87.12" y="179.42" width="22.06" height="30.58" fill="#C97D6E" rx="1"/><rect x="117.21" y="188.75" width="22.06" height="21.25" fill="#1C1B17" rx="1"/><text x="94.14" y="228" text-anchor="middle" font-size="11" fill="rgba(28,27,23,0.78)" font-family="JetBrains Mono">+1h</text><rect x="157.32" y="125.07" width="22.06" height="84.93" fill="#9A8868" rx="1"/><rect x="187.41" y="136.19" width="22.06" height="73.81" fill="#C97D6E" rx="1"/><rect x="217.49" y="178.05" width="22.06" height="31.95" fill="#1C1B17" rx="1"/><text x="194.43" y="228" text-anchor="middle" font-size="11" fill="rgba(28,27,23,0.78)" font-family="JetBrains Mono">+3h</text><rect x="257.61" y="125.08" width="22.06" height="84.92" fill="#9A8868" rx="1"/><rect x="287.69" y="84.93" width="22.06" height="125.07" fill="#C97D6E" rx="1"/><rect x="317.78" y="168.91" width="22.06" height="41.09" fill="#1C1B17" rx="1"/><text x="294.71" y="228" text-anchor="middle" font-size="11" fill="rgba(28,27,23,0.78)" font-family="JetBrains Mono">+6h</text><rect x="357.89" y="125.09" width="22.06" height="84.91" fill="#9A8868" rx="1"/><rect x="387.98" y="43.90" width="22.06" height="166.10" fill="#C97D6E" rx="1"/><rect x="418.07" y="159.69" width="22.06" height="50.31" fill="#1C1B17" rx="1"/><text x="395.00" y="228" text-anchor="middle" font-size="11" fill="rgba(28,27,23,0.78)" font-family="JetBrains Mono">+12h</text><rect x="458.18" y="125.11" width="22.06" height="84.89" fill="#9A8868" rx="1"/><rect x="488.27" y="143.11" width="22.06" height="66.89" fill="#C97D6E" rx="1"/><rect x="518.35" y="151.85" width="22.06" height="58.15" fill="#1C1B17" rx="1"/><text x="495.29" y="228" text-anchor="middle" font-size="11" fill="rgba(28,27,23,0.78)" font-family="JetBrains Mono">+24h</text><rect x="558.47" y="125.08" width="22.06" height="84.92" fill="#9A8868" rx="1"/><rect x="588.55" y="127.11" width="22.06" height="82.89" fill="#C97D6E" rx="1"/><rect x="618.64" y="141.10" width="22.06" height="68.90" fill="#1C1B17" rx="1"/><text x="595.57" y="228" text-anchor="middle" font-size="11" fill="rgba(28,27,23,0.78)" font-family="JetBrains Mono">+48h</text><rect x="658.75" y="125.05" width="22.06" height="84.95" fill="#9A8868" rx="1"/><rect x="688.84" y="119.65" width="22.06" height="90.35" fill="#C97D6E" rx="1"/><rect x="718.92" y="135.64" width="22.06" height="74.36" fill="#1C1B17" rx="1"/><text x="695.86" y="228" text-anchor="middle" font-size="11" fill="rgba(28,27,23,0.78)" font-family="JetBrains Mono">+72h</text>
</svg>